<svg viewBox="0,0 88.0,128.0" xmlns="http://www.w3.org/2000/svg">
  <g transform="scale(-1 -1) translate(-88.0 0) translate(0 -128.0)">
    <g transform="translate(0.0 0.0) ">
      <g transform="">
        <g transform=" scale(0.71661237785 0.373983739837)">
          <path d="
            M 1.6,10.6
            l -1.6,-3.7
            h 107.5
            l 6.3,-6.9
            c 6.0,5.2,9.0,8.5,9.0,9.9
            c 0.0,0.6,-0.6,1.3,-1.7,1.9
            l -3.7,2.1
            c -17.0,43.6,-35.2,80.0,-54.7,109.1
            l -8.4,-3.7
            C 74.5,89.4,92.6,53.1,108.5,10.6
            H 1.6
            Z"
          />
        </g>
        <g transform="translate(26.0 42.0) scale(0.477326968974 0.693548387097)">
          <path d="
            M 0.0,110.3
            c 8.3,1.0,15.0,1.5,20.4,1.5
            c 3.5,0.0,5.3,-1.6,5.3,-4.9
            V 0.0
            c 10.8,0.4,16.2,1.8,16.2,4.2
            c 0.0,1.4,-2.3,3.0,-6.9,4.8
            V 110.7
            c 0.0,5.5,-1.3,9.0,-4.0,10.6
            c -2.7,1.7,-6.8,2.6,-12.2,2.7
            c 0.0,-3.3,-1.6,-5.5,-4.8,-6.7
            c -2.1,-0.9,-6.8,-1.9,-13.9,-3.0
            V 110.3
            Z"
          />
        </g>
      </g>
    </g>
  </g>
</svg>