<svg viewBox="0,0 132.0,112.0" xmlns="http://www.w3.org/2000/svg">
  <g transform="">
    <g transform=" scale(0.505415162455 0.932556203164)">
      <path d="
        M 64.5,69.1
        c 13.7,-18.6,24.1,-41.6,31.2,-69.1
        c 10.1,3.5,15.1,6.3,15.1,8.3
        c 0.0,1.5,-2.4,2.4,-7.2,2.9
        c -7.8,24.5,-18.8,46.0,-33.0,64.7
        c -17.8,20.9,-40.6,35.7,-68.3,44.2
        l -2.3,-3.6
        C 24.8,106.8,46.3,91.0,64.5,69.1
        Z"
      />
    </g>
    <g transform="translate(76.0 0.0) scale(0.523364485981 0.994671403197)">
      <path d="
        M 3.6,0.0
        c 14.7,34.1,31.7,59.0,51.0,74.7
        c 13.5,11.0,30.9,20.5,52.4,28.5
        c -3.4,2.2,-6.1,5.4,-8.2,9.4
        C 66.8,98.8,42.5,79.5,25.8,54.9
        c -9.2,-13.5,-17.8,-31.0,-25.8,-52.7
        L 3.6,0.0
        Z"
      />
    </g>
  </g>
</svg>